<svg xmlns="http://www.w3.org/2000/svg" id="Group" width="60.732" height="83.81" viewBox="0 0 60.732 83.81">
    <defs>
        <style>
            .cls-1{fill:#fff;fill-rule:evenodd}
        </style>
    </defs>
    <path id="Combined-Shape" d="M60.6.059L60.732 0v38.774l-.134.059v.031l-6.181 2.68-1.237.543V41.7l-8.38-3.68 8.376-3.7v-7.582l-17.123 7.45-9.093-3.953 26.22-11.419v-7.572L9.053 30.491 0 26.541 60.6 0z" class="cls-1"/>
    <path id="Combined-Shape-2" d="M53.023 177.77v-7.6L0 146.985l9.26-4.053 51.34 22.435v8.118l-.023-.01v7.594l.023.01V189l-.023-.01v7.325l.023.01v7.925L.338 177.942v-7.937l52.685 23.015v-7.32l-52.684-23v-7.937z" class="cls-1" transform="translate(0 -120.444)"/>
</svg>
