<svg xmlns="http://www.w3.org/2000/svg" width="19.251" height="22.001" viewBox="0 0 19.251 22.001">
    <g>
        <g>
            <path fill="#fff" d="M67.523 36.451A1.126 1.126 0 1 1 66.4 35.23a1.172 1.172 0 0 1 1.123 1.221zm-5.138-1.221a1.225 1.225 0 1 0 1.122 1.221 1.172 1.172 0 0 0-1.122-1.221zM74 28.267V48c-2.771-2.449-1.885-1.638-5.1-4.631l.583 2.035H57.006a2.26 2.26 0 0 1-2.255-2.266V28.267A2.26 2.26 0 0 1 57.006 26h14.741A2.261 2.261 0 0 1 74 28.267zM70.867 38.7a14.732 14.732 0 0 0-1.584-6.413 5.44 5.44 0 0 0-3.091-1.155l-.154.176a7.32 7.32 0 0 1 2.739 1.4 9.347 9.347 0 0 0-8.217-.319c-.407.187-.649.319-.649.319a7.421 7.421 0 0 1 2.889-1.449l-.11-.132a5.44 5.44 0 0 0-3.09 1.155 14.732 14.732 0 0 0-1.582 6.418 3.988 3.988 0 0 0 3.355 1.672s.407-.495.737-.913a3.421 3.421 0 0 1-1.925-1.3c.162.113.429.26.451.275a8.018 8.018 0 0 0 6.864.385 6.292 6.292 0 0 0 1.265-.649 3.471 3.471 0 0 1-1.991 1.309c.33.418.726.891.726.891a4.021 4.021 0 0 0 3.367-1.67z" transform="translate(-54.751 -26.001) translate(54.751 26.001) translate(-54.751 -26.001)"/>
        </g>
    </g>
</svg>
