<svg xmlns="http://www.w3.org/2000/svg" width="21.662" height="21.211" viewBox="0 0 21.662 21.211">
    <g>
        <g>
            <path fill="#fff" d="M10.83 5.329a10.881 10.881 0 0 0-3.422 21.192c.542.1.739-.236.739-.524 0-.259-.009-.942-.015-1.849-3.012.652-3.648-1.458-3.648-1.458a2.872 2.872 0 0 0-1.2-1.591c-.984-.674.073-.661.073-.661a2.275 2.275 0 0 1 1.659 1.121 2.3 2.3 0 0 0 3.153.9 2.321 2.321 0 0 1 .688-1.454c-2.4-.275-4.934-1.208-4.934-5.374a4.215 4.215 0 0 1 1.116-2.919 3.918 3.918 0 0 1 .106-2.877s.91-.292 2.979 1.114a10.223 10.223 0 0 1 5.424 0C15.612 9.548 16.52 9.84 16.52 9.84a3.924 3.924 0 0 1 .108 2.877 4.207 4.207 0 0 1 1.113 2.919c0 4.177-2.532 5.1-4.944 5.365a2.6 2.6 0 0 1 .735 2.013c0 1.454-.014 2.627-.014 2.983 0 .291.195.63.745.523A10.882 10.882 0 0 0 10.83 5.329z" transform="translate(0 -5.329) translate(0 5.329) translate(0 -5.329)"/>
        </g>
    </g>
</svg>
