<svg xmlns="http://www.w3.org/2000/svg" id="_034-instagram" width="24.67" height="24.67" viewBox="0 0 24.67 24.67">
    <defs>
        <style>
            .cls-1{fill:#fff}
        </style>
    </defs>
    <g id="Group_3456">
        <g id="Group_3455">
            <path id="Path_6358" d="M16.96 0H7.709A7.71 7.71 0 0 0 0 7.709v9.251a7.71 7.71 0 0 0 7.709 7.71h9.251a7.71 7.71 0 0 0 7.71-7.71V7.709A7.71 7.71 0 0 0 16.96 0zm5.4 16.96a5.4 5.4 0 0 1-5.4 5.4H7.709a5.4 5.4 0 0 1-5.4-5.4V7.709a5.4 5.4 0 0 1 5.4-5.4h9.251a5.4 5.4 0 0 1 5.4 5.4z" class="cls-1"/>
        </g>
    </g>
    <g id="Group_3458" transform="translate(6.167 6.167)">
        <g id="Group_3457">
            <path id="Path_6359" d="M134.167 128a6.167 6.167 0 1 0 6.167 6.167 6.168 6.168 0 0 0-6.167-6.167zm0 10.022a3.855 3.855 0 1 1 3.855-3.855 3.86 3.86 0 0 1-3.855 3.855z" class="cls-1" transform="translate(-128 -128)"/>
        </g>
    </g>
    <g id="Group_3460" transform="translate(18.143 4.883)">
        <g id="Group_3459">
            <circle id="Ellipse_62" cx=".822" cy=".822" r=".822" class="cls-1"/>
        </g>
    </g>
</svg>
