<svg xmlns="http://www.w3.org/2000/svg" id="_031-linkedin" width="23.427" height="23.427" viewBox="0 0 23.427 23.427">
    <defs>
        <style>
            .cls-1{fill:#fff}
        </style>
    </defs>
    <g id="Group_3450" transform="translate(0 7.321)">
        <g id="Group_3449">
            <path id="Rectangle_3377" d="M0 0H5.239V16.106H0z" class="cls-1"/>
        </g>
    </g>
    <g id="Group_3452" transform="translate(7.321 7.321)">
        <g id="Group_3451">
            <path id="Path_6357" d="M172.188 160.189c-.056-.018-.108-.037-.167-.053s-.141-.029-.212-.041a4.7 4.7 0 0 0-.94-.1 7.279 7.279 0 0 0-5.63 3.079V160H160v16.106h5.239v-8.785s3.959-5.514 5.63-1.464v10.249h5.237v-10.869a5.223 5.223 0 0 0-3.918-5.048z" class="cls-1" transform="translate(-160 -160)"/>
        </g>
    </g>
    <g id="Group_3454">
        <g id="Group_3453">
            <circle id="Ellipse_61" cx="2.5" cy="2.5" r="2.5" class="cls-1"/>
        </g>
    </g>
</svg>
