<svg xmlns="http://www.w3.org/2000/svg" width="21.213" height="21.213" viewBox="0 0 21.213 21.213">
    <path fill="#fff" fill-rule="evenodd" d="M18.621 0a2.593 2.593 0 0 1 2.592 2.592v16.03a2.593 2.593 0 0 1-2.592 2.592H2.592A2.593 2.593 0 0 1 0 18.621V2.592A2.593 2.593 0 0 1 2.592 0h16.03zm-.808 5.689h-4.122l-2.939 7.33-3.342-7.33H3.086v.251l1.393 1.678a.577.577 0 0 1 .188.487V14.7a.759.759 0 0 1-.2.654L2.9 17.252v.248h4.44v-.251l-1.567-1.9a.787.787 0 0 1-.216-.654V9l3.9 8.507h.453L13.259 9v6.78c0 .181 0 .216-.118.334l-1.2 1.17v.251h5.849v-.255l-1.163-1.142a.348.348 0 0 1-.132-.334V7.416a.348.348 0 0 1 .132-.334l1.186-1.142v-.251z"/>
</svg>
