<svg xmlns="http://www.w3.org/2000/svg" width="28.331" height="22.919" viewBox="0 0 28.331 22.919">
    <defs>
        <style>
            .cls-1{fill:#fff}
        </style>
    </defs>
    <g id="_024-reddit" transform="translate(0 -49.119)">
        <g id="Group_3444" transform="translate(9.696 62.34)">
            <g id="Group_3443">
                <path id="Path_6354" d="M176 289.089h.881z" class="cls-1" transform="translate(-176 -289.089)"/>
            </g>
        </g>
        <g id="Group_3446" transform="translate(18.511 62.34)">
            <g id="Group_3445">
                <path id="Path_6355" d="M336 289.089h.881z" class="cls-1" transform="translate(-336 -289.089)"/>
            </g>
        </g>
        <g id="Group_3448" transform="translate(0 49.119)">
            <g id="Group_3447">
                <path id="Path_6356" d="M28.331 59.7a3.529 3.529 0 0 0-3.531-3.529 3.481 3.481 0 0 0-2.119.714A14.821 14.821 0 0 0 15.4 54.5l1.479-3.47 4.3 1a2.632 2.632 0 1 0 .409-1.715l-5.03-1.176a.881.881 0 0 0-1.014.513l-2.045 4.8a15.117 15.117 0 0 0-7.91 2.389 3.454 3.454 0 0 0-2.066-.668A3.529 3.529 0 0 0 0 59.7a3.492 3.492 0 0 0 1.782 3.052c-.014.155-.019.314-.019.474 0 4.861 5.536 8.815 12.341 8.815s12.341-3.954 12.341-8.815c0-.138-.005-.273-.014-.409a3.492 3.492 0 0 0 1.9-3.117zM23.8 50.882a.881.881 0 1 1-.881.881.883.883 0 0 1 .881-.881zM7.933 62.342A1.763 1.763 0 1 1 9.7 64.1a1.766 1.766 0 0 1-1.767-1.758zm10.241 5.848a6.935 6.935 0 0 1-8.141 0 .881.881 0 0 1 1.033-1.428 5.17 5.17 0 0 0 6.075 0 .881.881 0 0 1 1.033 1.428zm.337-4.085a1.763 1.763 0 1 1 1.763-1.763 1.764 1.764 0 0 1-1.763 1.758z" class="cls-1" transform="translate(0 -49.119)"/>
            </g>
        </g>
    </g>
</svg>
