<svg xmlns="http://www.w3.org/2000/svg" width="23" height="23" viewBox="0 0 23 23">
    <g>
        <path fill="#fff" d="M-1229.5-19939a11.42 11.42 0 0 1-8.131-3.367 11.418 11.418 0 0 1-3.367-8.131 11.429 11.429 0 0 1 3.367-8.133 11.421 11.421 0 0 1 8.131-3.369 11.429 11.429 0 0 1 8.133 3.369 11.431 11.431 0 0 1 3.369 8.133 11.42 11.42 0 0 1-3.369 8.131 11.428 11.428 0 0 1-8.133 3.367zm.556-8.537l.036.025.088.059.6.449c.643.477 1.279.945 1.89 1.395a.837.837 0 0 0 .5.2c.275 0 .472-.207.556-.586l.758-3.574.86-4.057c.019-.1.04-.189.06-.285a6.54 6.54 0 0 0 .125-.686.634.634 0 0 0-.135-.5.481.481 0 0 0-.365-.148.822.822 0 0 0-.287.057c-1.908.74-3.915 1.516-5.963 2.3l-1.481.572-.493.188-.11.043c-.763.293-1.552.6-2.328.906a1.572 1.572 0 0 0-.461.285.256.256 0 0 0-.1.209.285.285 0 0 0 .139.213 1.145 1.145 0 0 0 .351.16c.863.279 1.666.529 2.385.746a.249.249 0 0 1 .185.186c.319 1 .652 2.025 1.017 3.146a.286.286 0 0 0 .281.221h.034a.723.723 0 0 0 .517-.227c.421-.416.85-.832 1.266-1.232l.071-.068zm-1.869.771l-.261-.793v-.014l-.256-.779-.119-.369c-.086-.268-.177-.553-.271-.828a.164.164 0 0 1 .085-.234q.727-.457 1.453-.916c1.443-.912 2.838-1.789 4.148-2.611a1.071 1.071 0 0 1 .276-.141.148.148 0 0 1 .05-.006.594.594 0 0 1 .106.016c.026.006.054.012.08.016a.59.59 0 0 0-.031.066.353.353 0 0 1-.074.123l-1.038.938-.417.379-1.079.979c-.345.309-.7.625-1.036.93l-.224.2c-.312.283-.641.58-1.036.934a.4.4 0 0 0-.15.3c-.048.559-.1 1.125-.155 1.672V-19946.847a.186.186 0 0 1-.007.045v.006c0 .008 0 .018-.006.025h-.024z" transform="translate(-5.002 -4.998) translate(1246 19967)"/>
    </g>
</svg>
