<svg xmlns="http://www.w3.org/2000/svg" width="28.52" height="23.173" viewBox="0 0 28.52 23.173">
    <g>
        <g>
            <path fill="#fff" d="M28.52 50.743a12.19 12.19 0 0 1-3.369.923 5.814 5.814 0 0 0 2.572-3.232 11.685 11.685 0 0 1-3.708 1.415 5.847 5.847 0 0 0-10.114 4 6.021 6.021 0 0 0 .135 1.333 16.55 16.55 0 0 1-12.05-6.116 5.848 5.848 0 0 0 1.8 7.815 5.774 5.774 0 0 1-2.642-.72v.064a5.874 5.874 0 0 0 4.681 5.745 5.836 5.836 0 0 1-1.533.193 5.17 5.17 0 0 1-1.107-.1 5.9 5.9 0 0 0 5.463 4.073A11.748 11.748 0 0 1 1.4 68.629a10.952 10.952 0 0 1-1.4-.08 16.461 16.461 0 0 0 8.97 2.624c10.759 0 16.642-8.913 16.642-16.638 0-.258-.009-.508-.021-.756a11.664 11.664 0 0 0 2.929-3.036z" transform="translate(0 -48) translate(0 48) translate(0 -48)"/>
        </g>
    </g>
</svg>
