<svg xmlns="http://www.w3.org/2000/svg" width="44.052" height="44.052" viewBox="0 0 44.052 44.052">
    <path fill="none" d="M0 0h44.052v44.052H0z"/>
    <path fill="#fff" d="M18.684 30.368a3.671 3.671 0 1 0-3.671-3.668 3.682 3.682 0 0 0 3.671 3.668zM29.7 13.848h-1.839v-3.671a9.177 9.177 0 0 0-18.355 0h3.487a5.69 5.69 0 0 1 11.38 0v3.671H7.671A3.682 3.682 0 0 0 4 17.519v18.355a3.682 3.682 0 0 0 3.671 3.671H29.7a3.682 3.682 0 0 0 3.671-3.671V17.519a3.682 3.682 0 0 0-3.671-3.671zm0 22.026z" transform="translate(3.342 .835)"/>
</svg>
