<?xml version="1.0" standalone="no"?>
<!DOCTYPE svg PUBLIC "-//W3C//DTD SVG 20010904//EN"
 "http://www.w3.org/TR/2001/REC-SVG-20010904/DTD/svg10.dtd">
<svg version="1.0" xmlns="http://www.w3.org/2000/svg"
 width="1344.000000pt" height="1344.000000pt" viewBox="0 0 1344.000000 1344.000000"
 preserveAspectRatio="xMidYMid meet">
<metadata>
Created by potrace 1.11, written by Peter Selinger 2001-2013
</metadata>
<g transform="translate(0.000000,1344.000000) scale(0.100000,-0.100000)"
fill="#000000" stroke="none">
<path d="M11550 13432 c-8 -3 -49 -21 -90 -40 -41 -19 -79 -36 -85 -37 -38
-11 -55 -18 -55 -24 0 -4 -6 -8 -12 -8 -7 -1 -96 -38 -198 -83 -102 -45 -252
-111 -335 -147 -82 -36 -178 -78 -213 -94 -35 -16 -64 -29 -66 -29 -2 0 -30
-12 -62 -27 -33 -15 -61 -27 -64 -28 -5 -1 -16 -6 -135 -60 -33 -15 -66 -28
-73 -29 -7 -1 -18 -8 -24 -14 -7 -7 -17 -12 -23 -12 -7 0 -27 -8 -46 -17 -19
-10 -43 -19 -54 -20 -10 -2 -22 -7 -25 -12 -3 -5 -16 -12 -30 -16 -14 -4 -52
-20 -85 -35 -33 -15 -76 -35 -95 -43 -19 -8 -55 -24 -80 -35 -91 -41 -348
-153 -360 -157 -10 -3 -85 -37 -135 -60 -117 -53 -130 -59 -135 -60 -5 0 -95
-39 -198 -86 -35 -16 -65 -29 -68 -29 -2 0 -32 -13 -66 -28 -92 -42 -122 -55
-128 -57 -3 -1 -36 -16 -74 -33 -38 -18 -71 -32 -74 -32 -2 0 -38 -16 -79 -35
-41 -19 -77 -35 -80 -35 -2 0 -30 -12 -61 -26 -79 -36 -101 -45 -237 -104 -66
-29 -140 -62 -165 -74 -25 -13 -49 -24 -55 -26 -22 -6 -42 -14 -95 -38 -30
-14 -57 -26 -60 -27 -18 -6 -77 -32 -207 -91 -28 -13 -54 -24 -56 -24 -2 0
-35 -14 -73 -32 -38 -17 -71 -32 -74 -33 -3 -1 -21 -8 -40 -17 -19 -8 -75 -33
-125 -54 -49 -21 -93 -42 -96 -47 -3 -5 -10 -9 -15 -9 -14 -1 -37 -8 -69 -23
-16 -8 -50 -22 -75 -33 -54 -23 -194 -85 -270 -119 -30 -14 -63 -27 -74 -29
-10 -2 -26 -10 -36 -19 -9 -8 -21 -15 -27 -15 -9 0 -51 -18 -178 -75 -16 -7
-156 -68 -310 -135 -264 -115 -328 -143 -400 -176 -136 -60 -242 -106 -250
-108 -5 -2 -35 -14 -65 -28 -30 -14 -125 -56 -210 -92 -157 -68 -201 -88 -300
-134 -30 -14 -59 -27 -65 -28 -9 -2 -321 -138 -422 -185 -24 -10 -45 -19 -47
-19 -3 0 -33 -13 -68 -29 -86 -40 -291 -130 -308 -136 -12 -4 -61 -25 -125
-55 -38 -18 -90 -40 -115 -50 -25 -10 -71 -30 -102 -44 -54 -25 -107 -48 -118
-51 -3 -1 -21 -8 -40 -17 -30 -13 -279 -122 -405 -177 -22 -10 -69 -31 -104
-47 -35 -16 -67 -29 -70 -30 -3 0 -33 -13 -66 -28 -90 -41 -109 -49 -118 -48
-4 1 -7 -3 -7 -10 0 -6 -3 -8 -7 -5 -3 4 -12 2 -20 -4 -7 -6 -13 -8 -13 -3 0
5 -4 3 -9 -4 -4 -7 -14 -15 -22 -16 -16 -3 -44 -15 -119 -49 -30 -14 -109 -48
-175 -77 -137 -59 -193 -84 -249 -109 l-39 -18 124 -54 c68 -30 126 -54 129
-54 3 0 28 -12 55 -26 28 -14 55 -27 60 -29 18 -5 50 -18 110 -45 62 -28 106
-47 115 -50 3 -1 23 -10 45 -20 22 -10 42 -19 45 -20 9 -3 55 -23 230 -100
180 -79 221 -97 230 -100 3 -1 31 -13 64 -28 32 -15 60 -27 62 -27 2 0 38 -16
80 -35 41 -19 77 -35 79 -35 3 0 28 -11 57 -24 47 -21 82 -36 98 -41 13 -4 66
-30 70 -35 3 -3 11 -6 19 -8 8 -2 30 -10 50 -19 20 -9 42 -17 50 -19 8 -1 17
-8 21 -14 4 -7 9 -11 11 -10 6 2 38 -10 107 -41 35 -16 65 -29 67 -29 4 0 92
-38 150 -65 104 -49 312 -137 323 -138 6 0 12 -4 12 -9 0 -4 5 -8 11 -8 5 0
29 -9 52 -19 23 -11 47 -20 52 -22 6 -1 48 -20 95 -41 122 -55 119 -54 183
-82 32 -14 60 -26 62 -26 2 0 35 -14 72 -31 37 -17 77 -35 88 -40 11 -4 83
-36 160 -70 77 -33 160 -70 185 -80 25 -11 53 -24 62 -29 10 -6 25 -10 33 -10
8 0 15 -5 15 -10 0 -6 3 -9 8 -8 8 1 13 -1 152 -61 52 -23 104 -46 115 -50 11
-5 41 -18 67 -30 26 -12 52 -21 58 -21 5 0 10 -5 10 -12 0 -6 3 -9 6 -6 3 3
40 -10 82 -29 109 -49 129 -58 202 -88 36 -15 71 -32 78 -37 6 -6 12 -7 12 -4
0 4 12 1 28 -7 15 -8 47 -24 72 -35 25 -11 70 -32 101 -46 31 -14 59 -26 62
-26 3 0 38 -15 79 -33 106 -49 132 -60 138 -62 13 -4 70 -29 128 -55 35 -17
65 -30 67 -30 2 0 39 -16 82 -36 43 -20 83 -37 88 -38 6 -1 17 -6 25 -11 8 -5
20 -10 25 -11 6 -1 39 -15 75 -32 36 -16 99 -45 140 -62 41 -18 103 -45 138
-61 35 -16 66 -29 70 -29 4 0 34 -14 67 -30 33 -16 63 -30 67 -30 3 0 39 -15
80 -34 40 -18 123 -55 183 -81 61 -26 130 -56 155 -67 25 -11 61 -27 80 -35
19 -8 64 -29 100 -45 36 -17 70 -31 75 -32 6 -1 17 -6 25 -11 8 -5 20 -10 25
-12 6 -1 96 -39 200 -85 236 -105 228 -101 238 -100 4 1 7 -2 7 -8 0 -5 9 -10
19 -10 11 0 23 -5 26 -10 4 -6 11 -8 16 -5 5 4 9 1 9 -4 0 -6 6 -11 13 -11 8
0 41 -13 75 -30 34 -16 68 -30 75 -30 7 0 17 -4 22 -9 6 -5 39 -21 75 -36 36
-15 84 -36 108 -46 23 -10 63 -28 90 -40 26 -11 65 -29 88 -40 22 -10 43 -19
47 -19 3 0 39 -15 79 -34 40 -19 109 -49 153 -67 44 -19 82 -36 85 -39 3 -3
14 -7 25 -8 11 -2 22 -8 23 -13 2 -5 8 -9 14 -9 13 0 289 -120 306 -132 6 -6
12 -7 12 -4 0 4 12 0 28 -8 15 -9 61 -30 102 -48 l75 -33 0 -608 c0 -334 -2
-607 -4 -607 -3 0 -159 67 -261 112 -25 11 -58 26 -75 33 -16 8 -56 25 -88 39
-31 14 -85 38 -120 52 -34 14 -87 37 -117 51 -52 24 -99 43 -110 45 -3 1 -25
11 -50 23 -51 25 -332 149 -340 150 -3 1 -20 9 -37 18 -18 10 -33 15 -33 11 0
-4 -6 -2 -12 4 -7 5 -47 24 -88 42 -85 37 -142 62 -218 96 -29 13 -55 24 -57
24 -3 0 -33 14 -67 30 -34 17 -65 30 -69 30 -4 0 -42 16 -86 35 -120 55 -135
62 -173 78 -19 8 -55 24 -80 35 -25 11 -130 57 -235 102 -104 45 -210 91 -235
102 -25 11 -58 26 -75 33 -16 8 -65 29 -107 49 -43 19 -78 32 -78 29 0 -3 -6
-1 -12 5 -11 8 -48 25 -213 97 -16 7 -51 22 -77 34 -26 11 -50 21 -52 21 -2 0
-37 15 -78 34 -92 42 -111 50 -120 48 -5 -1 -8 2 -8 8 0 5 -9 10 -19 10 -11 0
-22 4 -26 9 -3 5 -19 12 -35 16 -17 4 -30 11 -30 17 0 6 -3 9 -6 6 -4 -5 -105
37 -259 107 -34 16 -75 31 -90 35 -5 1 -19 9 -30 16 -11 8 -27 14 -35 14 -9 0
-22 6 -29 13 -6 6 -15 12 -19 13 -8 1 -45 16 -105 43 -23 10 -76 33 -117 51
-41 18 -95 42 -120 53 -25 12 -47 22 -50 22 -10 3 -66 27 -105 44 -113 52
-155 69 -155 63 0 -4 -4 -2 -8 3 -4 6 -47 28 -97 49 -96 41 -158 68 -215 93
-19 9 -105 46 -190 83 -85 37 -177 78 -205 90 -61 27 -89 39 -191 83 -43 19
-101 45 -129 57 -27 13 -54 24 -60 26 -5 1 -77 32 -160 69 -181 80 -182 81
-320 140 -60 26 -116 52 -123 57 -6 6 -12 8 -12 5 0 -3 -28 8 -62 25 -34 16
-69 31 -78 33 -8 2 -28 10 -45 18 -16 9 -122 56 -235 105 -113 49 -223 98
-245 107 -22 10 -42 19 -45 20 -17 6 -73 30 -128 55 -35 17 -69 30 -76 30 -6
0 -16 4 -22 9 -5 5 -43 23 -84 41 -41 18 -103 45 -138 61 -35 16 -65 29 -68
29 -3 0 -109 46 -239 105 -62 27 -110 48 -115 49 -5 1 -257 111 -415 181 -71
32 -111 48 -125 51 -14 3 -15 -69 -15 -629 l0 -631 95 -43 c175 -79 195 -87
202 -85 5 1 8 -2 8 -8 0 -6 3 -9 8 -8 9 2 23 -4 216 -88 83 -37 155 -70 161
-75 5 -5 15 -9 22 -9 11 0 70 -25 178 -75 94 -43 198 -87 205 -87 3 0 21 -8
40 -18 19 -10 51 -25 70 -33 184 -78 270 -116 313 -138 20 -10 37 -17 37 -15
0 2 27 -9 60 -25 33 -16 62 -29 65 -29 2 0 29 -11 59 -25 51 -23 105 -46 116
-50 3 -1 32 -14 65 -29 70 -32 108 -49 115 -50 3 -1 21 -9 40 -18 19 -9 80
-35 134 -58 54 -23 106 -46 115 -50 30 -17 152 -70 160 -70 4 0 27 -10 52 -22
24 -12 50 -23 58 -24 8 -2 17 -6 20 -11 3 -4 13 -9 21 -11 8 -1 33 -11 55 -21
22 -11 56 -26 75 -34 146 -63 410 -179 493 -216 23 -11 55 -23 70 -26 15 -4
27 -11 27 -16 0 -5 9 -9 19 -9 11 0 22 -4 26 -9 3 -5 19 -12 35 -16 17 -4 30
-11 30 -17 0 -6 3 -9 6 -6 5 5 48 -12 170 -67 16 -8 66 -29 110 -48 43 -19 99
-43 124 -54 25 -11 64 -28 88 -38 23 -10 42 -22 42 -27 0 -5 4 -7 9 -4 4 3 57
-16 117 -43 182 -81 189 -84 198 -82 5 1 12 -2 15 -6 3 -5 31 -20 61 -32 30
-13 78 -34 105 -46 114 -51 180 -80 185 -81 3 0 22 -8 43 -17 20 -9 54 -25 75
-34 20 -9 39 -17 42 -18 3 0 22 -8 43 -18 20 -9 52 -23 70 -31 17 -8 61 -27
97 -44 36 -16 76 -33 90 -37 14 -4 34 -14 45 -21 11 -8 27 -14 35 -14 9 0 21
-5 28 -12 6 -6 17 -13 24 -14 7 -1 38 -13 68 -27 30 -13 89 -39 130 -57 41
-18 95 -42 120 -53 25 -11 50 -22 55 -23 8 -2 156 -67 270 -119 76 -34 160
-70 180 -75 6 -2 31 -14 56 -27 26 -13 52 -23 58 -23 6 0 11 -4 11 -8 0 -5 6
-9 13 -9 6 0 39 -12 72 -27 82 -37 93 -42 148 -65 26 -12 66 -29 90 -40 23
-10 96 -42 162 -71 66 -28 136 -59 155 -67 19 -9 55 -24 80 -35 74 -32 79 -35
235 -103 83 -37 159 -68 169 -71 11 -2 23 -9 28 -16 4 -7 8 -9 8 -4 0 4 11 1
25 -8 13 -9 31 -16 40 -16 8 0 15 -5 15 -11 0 -5 4 -8 9 -4 5 3 12 1 15 -4 3
-5 17 -12 30 -15 13 -3 57 -21 97 -40 41 -18 104 -47 142 -64 37 -17 67 -28
67 -25 0 3 9 -2 20 -12 11 -10 20 -15 20 -12 0 6 82 -29 186 -79 28 -13 54
-24 57 -24 3 0 34 -13 69 -29 152 -69 181 -81 194 -81 8 0 14 -4 14 -8 0 -4
12 -12 28 -18 l27 -10 -2 -570 c-2 -673 0 -609 -15 -597 -7 5 -31 17 -53 25
-22 9 -65 27 -95 41 -30 14 -116 51 -190 83 -74 32 -136 61 -138 65 -2 4 -9 6
-16 3 -7 -3 -19 2 -26 11 -7 8 -18 15 -25 15 -11 0 -40 12 -180 75 -49 22
-110 48 -115 50 -20 7 -110 48 -131 60 -14 8 -29 12 -33 8 -3 -3 -6 0 -6 7 0
7 -3 10 -7 7 -3 -4 -12 -2 -20 4 -7 6 -13 8 -13 4 0 -4 -6 -3 -12 3 -7 5 -67
33 -133 62 -66 29 -140 61 -165 72 -25 11 -58 26 -75 33 -16 7 -102 45 -190
83 -170 74 -234 101 -238 101 -1 -1 -25 11 -53 25 -29 14 -55 26 -59 26 -3 0
-36 14 -73 31 -68 32 -97 45 -212 94 -63 27 -111 48 -212 94 -26 11 -50 21
-52 21 -2 0 -44 19 -92 41 -49 23 -94 42 -100 43 -7 1 -19 8 -28 15 -9 7 -16
11 -16 8 0 -4 -42 13 -92 37 -51 23 -97 44 -103 45 -5 2 -32 13 -60 25 -27 13
-106 47 -175 77 -69 29 -127 56 -130 59 -3 3 -10 6 -16 7 -16 3 -283 120 -316
139 -16 8 -28 13 -28 10 0 -2 -27 9 -60 25 -33 16 -62 29 -65 29 -3 0 -40 16
-82 36 -43 20 -84 37 -90 37 -7 0 -13 5 -13 10 0 6 -2 8 -6 5 -3 -3 -32 7 -65
23 -32 16 -61 29 -64 29 -2 0 -30 12 -62 26 -32 14 -74 33 -93 41 -19 9 -68
30 -107 49 -40 18 -73 30 -73 27 0 -3 -9 2 -19 11 -11 10 -25 15 -30 11 -6 -3
-11 -1 -11 4 0 6 -4 11 -10 11 -5 0 -33 11 -62 24 -29 13 -87 38 -128 56 -41
18 -103 45 -138 61 -35 16 -66 29 -70 29 -7 0 -96 41 -147 68 -16 9 -32 16
-35 15 -3 -1 -25 8 -50 19 -25 11 -58 26 -75 33 -16 7 -52 23 -80 36 -27 12
-52 23 -55 24 -12 4 -67 27 -94 41 -16 8 -35 14 -43 14 -7 0 -13 5 -13 10 0 6
-3 9 -8 8 -11 -3 -82 25 -82 32 0 4 -6 7 -12 7 -7 0 -35 10 -63 23 -27 12 -78
36 -113 51 -34 16 -64 29 -67 29 -2 0 -29 11 -60 25 -30 14 -57 25 -60 25 -3
0 -20 7 -38 17 -17 9 -34 18 -37 18 -11 3 -66 27 -94 41 -16 8 -35 14 -43 14
-7 0 -13 5 -13 10 0 6 -4 10 -9 10 -5 0 -22 5 -38 12 -15 6 -30 12 -33 13 -3
1 -36 16 -74 33 -38 18 -71 32 -73 32 -2 0 -28 11 -56 24 -102 46 -192 84
-207 88 -8 2 -18 7 -22 12 -3 5 -12 11 -20 12 -7 1 -40 14 -73 29 -33 16 -64
29 -70 31 -8 2 -119 50 -250 108 -61 28 -131 58 -160 71 -51 22 -98 42 -145
63 -25 11 -90 39 -145 62 -55 24 -103 48 -107 54 -4 6 -8 7 -8 2 0 -5 -7 -3
-15 4 -8 7 -15 9 -15 5 0 -3 -16 3 -35 15 -19 12 -35 19 -35 17 0 -3 -27 8
-60 24 -33 16 -62 29 -65 29 -3 0 -39 16 -81 35 -41 19 -81 35 -89 35 -7 0
-18 7 -25 15 -7 8 -20 15 -29 15 -9 0 -25 6 -36 14 -11 7 -23 14 -28 15 -4 0
-22 7 -40 14 -17 8 -57 24 -87 37 -30 13 -59 27 -65 32 -5 4 -14 8 -20 8 -10
0 -16 -1264 -5 -1273 3 -2 46 -21 95 -41 50 -21 109 -47 133 -57 23 -11 61
-27 85 -38 23 -10 148 -65 277 -121 129 -56 251 -110 272 -120 20 -10 44 -20
55 -22 10 -2 20 -5 23 -8 3 -3 46 -23 95 -44 111 -47 162 -70 242 -107 34 -16
64 -29 67 -29 3 0 31 -12 63 -26 72 -32 98 -44 192 -84 40 -17 106 -47 147
-66 41 -19 77 -34 81 -34 3 0 29 -11 57 -24 76 -36 145 -66 150 -66 2 0 25
-10 52 -22 27 -12 52 -21 56 -20 5 1 8 -2 8 -8 0 -5 8 -10 18 -10 10 0 23 -5
30 -12 7 -7 12 -8 12 -3 0 6 4 4 9 -3 4 -7 14 -15 22 -16 18 -4 51 -17 131
-54 35 -16 79 -35 98 -42 19 -7 40 -17 46 -22 6 -4 28 -14 50 -22 21 -8 66
-27 99 -42 33 -15 62 -28 65 -29 6 -2 28 -11 160 -69 58 -25 110 -46 117 -46
6 0 13 -3 15 -8 2 -4 35 -20 73 -36 39 -16 97 -42 131 -57 33 -16 63 -29 67
-29 3 0 34 -13 69 -29 60 -27 198 -88 263 -116 17 -7 32 -13 35 -12 3 1 19 -7
35 -16 26 -15 121 -58 135 -62 3 0 28 -11 55 -24 28 -12 56 -24 63 -25 7 -1
18 -8 24 -14 7 -7 20 -12 29 -12 10 0 21 -4 24 -10 3 -5 15 -10 26 -10 10 0
19 -5 19 -11 0 -5 4 -8 9 -4 5 3 12 1 16 -5 4 -6 11 -8 16 -5 5 4 9 1 9 -4 0
-6 3 -10 8 -9 4 1 23 -5 42 -14 114 -50 140 -62 188 -84 29 -13 59 -24 67 -24
8 0 15 -4 15 -10 0 -5 5 -10 10 -10 6 0 27 -7 48 -17 20 -9 39 -17 42 -17 3
-1 31 -14 64 -29 32 -15 60 -27 63 -27 2 0 25 -10 51 -22 26 -12 49 -23 52
-23 9 -3 55 -23 123 -54 37 -17 70 -31 72 -31 3 0 33 -13 67 -28 179 -82 250
-112 263 -112 8 0 15 -4 15 -10 0 -5 8 -10 18 -10 10 0 22 -4 27 -8 6 -5 28
-16 50 -25 22 -8 61 -25 87 -37 26 -11 51 -21 55 -22 5 -1 38 -17 75 -35 37
-18 71 -33 76 -33 4 0 33 -12 62 -26 52 -25 83 -38 105 -44 6 -2 30 -13 55
-25 25 -13 90 -42 145 -65 55 -23 116 -50 136 -61 20 -10 44 -19 53 -19 9 0
16 -5 16 -10 0 -6 3 -9 8 -8 4 1 18 -4 32 -12 14 -7 26 -13 27 -12 2 1 22 -7
45 -17 398 -174 422 -184 424 -179 1 2 11 -5 22 -15 11 -10 23 -17 28 -16 5 1
36 -10 69 -25 117 -54 192 -87 205 -91 3 0 25 -10 50 -22 25 -11 74 -33 110
-48 36 -15 93 -41 128 -56 34 -16 64 -29 67 -29 3 0 39 -16 79 -35 41 -19 77
-35 80 -35 5 0 49 -19 184 -81 35 -16 69 -29 75 -29 7 0 17 -4 22 -9 6 -5 46
-24 90 -42 44 -18 82 -37 83 -41 2 -4 15 -8 28 -8 13 0 24 -4 24 -10 0 -5 5
-10 11 -10 10 0 187 -75 356 -151 40 -18 91 -40 103 -44 5 -2 60 -26 128 -56
88 -39 133 -59 362 -159 129 -56 251 -109 270 -118 19 -9 37 -17 40 -18 3 0
21 -7 40 -16 19 -9 72 -32 116 -51 l81 -35 0 3118 0 3119 -51 22 c-28 12 -67
29 -86 37 -19 9 -37 16 -40 17 -8 3 -52 21 -115 50 -73 33 -108 48 -115 50 -3
0 -21 8 -40 17 -62 30 -245 110 -255 112 -5 1 -41 17 -79 34 -38 18 -70 32
-72 32 -2 0 -34 14 -71 31 -66 30 -95 43 -158 69 l-30 12 45 22 c25 12 61 28
80 36 19 7 69 29 110 48 41 19 98 43 125 54 28 11 54 24 60 29 5 5 16 9 25 9
8 0 29 7 45 16 17 8 73 34 125 56 96 41 156 67 220 96 19 9 37 17 40 17 3 0
31 13 64 28 32 15 65 27 72 27 8 0 14 5 14 10 0 6 6 10 13 10 7 0 32 9 55 20
l42 20 0 3109 c0 2479 -3 3108 -12 3108 -7 0 -20 -3 -28 -5z m-1173 -1807 c-4
-8 -2 -17 4 -20 5 -4 6 -11 3 -17 -6 -10 -9 -133 -3 -148 1 -3 0 -9 -1 -15 -3
-11 -2 -137 1 -145 1 -3 0 -9 -1 -15 -3 -11 -2 -137 1 -145 1 -3 0 -9 -1 -15
-3 -11 -2 -137 1 -145 1 -3 0 -9 -1 -15 -3 -11 -2 -137 1 -145 1 -3 0 -9 -1
-15 -3 -11 -2 -137 1 -145 1 -3 0 -9 -1 -15 -1 -5 -3 -55 -4 -110 0 -59 -5
-100 -11 -100 -5 -1 -32 -11 -60 -24 -27 -12 -71 -31 -97 -42 -26 -10 -55 -23
-65 -28 -48 -27 -202 -88 -207 -83 -3 3 -6 0 -6 -6 0 -10 -67 -38 -82 -34 -5
1 -8 -3 -8 -8 0 -6 -9 -10 -20 -10 -11 0 -20 -4 -20 -8 0 -4 -10 -8 -21 -9
-12 -1 -29 -9 -38 -17 -10 -9 -23 -16 -29 -16 -6 0 -41 -14 -79 -31 -78 -35
-80 -36 -268 -117 -184 -79 -199 -86 -207 -84 -5 1 -8 -2 -8 -8 0 -5 -5 -10
-11 -10 -6 0 -32 -10 -58 -23 -25 -13 -49 -24 -54 -25 -4 -1 -22 -8 -40 -15
-68 -29 -324 -140 -362 -157 -115 -52 -531 -232 -540 -233 -5 -1 -16 -8 -23
-14 -7 -7 -20 -13 -28 -13 -8 0 -22 -5 -32 -10 -39 -23 -312 -138 -312 -132 0
4 -4 2 -8 -3 -4 -6 -47 -28 -97 -49 -130 -56 -174 -75 -225 -99 -25 -12 -54
-23 -65 -24 -11 -2 -21 -8 -23 -13 -2 -6 -8 -10 -13 -10 -5 0 -25 -7 -45 -15
-19 -8 -36 -15 -39 -15 -2 -1 -44 -19 -92 -41 -124 -56 -122 -55 -186 -83 -32
-14 -64 -26 -71 -26 -8 0 -16 -5 -18 -11 -2 -5 -10 -11 -18 -13 -8 -1 -25 -7
-36 -14 -12 -6 -24 -8 -28 -5 -3 3 -6 1 -6 -5 0 -7 -6 -12 -12 -12 -7 0 -130
-51 -273 -114 -204 -90 -263 -112 -274 -102 -8 6 -16 10 -18 8 -2 -1 -24 6
-49 18 -26 11 -48 20 -50 20 -2 0 -34 14 -71 31 -147 67 -174 79 -179 79 -3 0
-39 16 -80 35 -41 19 -77 35 -80 35 -3 0 -26 10 -52 22 -26 12 -49 22 -52 23
-3 0 -25 10 -50 22 -40 19 -149 66 -205 88 -11 5 -23 7 -27 7 -5 -1 -8 3 -8 8
0 6 -5 10 -10 10 -6 0 -30 9 -52 20 -23 11 -48 20 -55 20 -7 0 -13 5 -13 11 0
5 -4 8 -9 4 -5 -3 -12 -1 -16 5 -4 6 -11 8 -16 5 -5 -4 -9 -1 -9 4 0 6 -7 11
-15 11 -9 0 -30 8 -48 17 -18 9 -34 18 -37 18 -3 1 -23 10 -45 20 -22 10 -43
19 -47 20 -5 2 -10 4 -13 5 -3 1 -8 3 -12 4 -16 3 -57 36 -45 36 14 0 209 81
253 105 14 8 29 12 33 8 3 -3 6 -2 6 4 0 6 12 14 28 18 15 3 53 20 85 36 31
16 57 27 57 24 0 -2 26 9 58 24 31 15 83 38 115 51 31 12 57 26 57 31 0 5 3 8
8 7 11 -3 50 11 130 48 41 19 75 34 77 34 3 0 33 13 67 28 35 16 95 41 133 57
39 16 75 32 80 36 6 4 55 26 110 49 55 23 114 48 130 56 142 65 422 184 432
184 7 0 13 5 13 10 0 6 6 10 13 10 7 0 100 39 207 86 226 99 209 92 410 179
85 37 173 76 195 85 94 42 121 53 130 56 17 4 160 69 165 74 3 3 10 6 15 7 8
1 165 68 305 131 144 64 237 104 245 106 6 2 33 14 60 27 28 13 52 24 55 25 3
1 15 5 28 9 12 4 22 12 22 18 0 6 3 8 6 5 6 -7 39 6 152 58 41 19 75 34 76 34
2 0 25 10 52 22 27 12 51 23 54 23 3 1 19 8 35 15 17 7 32 14 35 15 3 1 26 11
51 22 165 74 349 153 358 153 6 0 11 4 11 8 0 5 6 9 13 9 10 1 130 52 334 144
26 11 62 27 78 34 116 49 167 70 213 91 29 13 79 35 112 49 33 14 86 37 117
51 32 14 74 33 93 41 19 8 42 19 50 23 21 12 23 12 17 -5z m0 -3085 c0 -335
-2 -609 -6 -608 -3 1 -37 -13 -74 -30 -38 -18 -70 -32 -72 -32 -2 0 -43 -18
-90 -40 -47 -22 -88 -40 -90 -40 -2 0 -34 -14 -72 -32 -37 -18 -70 -33 -73
-33 -8 -2 -49 -20 -115 -50 -33 -15 -80 -36 -105 -47 -25 -11 -57 -26 -72 -34
-15 -8 -30 -15 -33 -15 -5 0 -62 -24 -142 -61 -27 -12 -50 -22 -53 -23 -3 0
-15 -6 -26 -13 -12 -6 -24 -8 -28 -5 -3 3 -6 1 -6 -5 0 -7 -6 -12 -12 -12 -15
0 -241 -100 -248 -110 -3 -4 -12 -6 -20 -5 -12 2 -134 53 -225 95 -99 45 -157
70 -160 70 -3 0 -30 12 -62 26 -32 14 -71 32 -88 39 -16 8 -65 29 -107 49 -43
19 -78 32 -78 29 0 -3 -9 2 -21 13 -12 10 -23 18 -25 17 -5 -3 -31 6 -89 32
-27 13 -104 46 -170 75 -66 28 -136 59 -155 67 -19 9 -53 23 -75 33 -22 10
-56 25 -76 33 -20 9 -46 20 -59 25 -20 7 -18 10 22 26 42 19 100 44 188 84 25
11 55 23 68 27 12 3 22 10 22 14 0 4 6 8 14 8 8 0 29 7 47 15 19 9 57 26 84
37 56 25 69 30 140 62 28 13 52 24 55 24 6 2 35 14 105 45 75 33 99 43 105 44
3 1 10 4 15 8 6 3 55 25 110 48 55 23 105 46 110 50 6 4 21 11 35 15 14 4 54
21 90 37 36 16 79 36 95 43 17 7 59 25 95 40 36 15 90 39 120 53 30 14 60 27
65 28 6 1 45 18 88 38 43 20 80 36 82 36 2 0 34 14 72 32 37 17 74 31 81 31 6
0 12 4 12 9 0 4 8 8 18 8 10 0 22 4 28 8 5 5 50 26 99 47 50 21 113 48 140 60
68 31 486 211 505 218 8 3 16 6 16 6 1 1 1 -273 1 -609z"/>
</g>
</svg>
